<?xml version="1.0" encoding="UTF-8"?>
<svg id="Capa_1" xmlns="http://www.w3.org/2000/svg" viewBox="0 0 492.9 472">
  <defs>
    <style>
      .cls-1 {
        fill: #960b0b;
      }

      .cls-2 {
        fill: #1e1c1c;
      }

      .cls-3 {
        fill: #161515;
      }

      .cls-4 {
        opacity: .2;
      }

      .cls-5 {
        fill: #565454;
      }

      .cls-6 {
        fill: #f12814;
      }

      .cls-7 {
        fill: #9a1a11;
      }
    </style>
  </defs>
  <path class="cls-2" d="M246.45,37.66c-72.15-.67-164.65-6.9-231.68-20.16,3.13,14.12,6.28,25.11,6.28,25.11,0,0,0,.02.02.04.41.62,6.69,10.23,9.16,12.33.07.05.16.12.23.18,31.29,6.55,133.37,9.73,214.31,9.99h0c.56,0,1.12,0,1.68,0,.56,0,1.12,0,1.68,0h0c80.94-.27,183.02-3.44,214.31-10,.07-.05.16-.12.23-.18,2.48-2.11,8.76-11.71,9.16-12.33.02-.02.02-.04.02-.04,0,0,3.15-10.99,6.28-25.11-67.03,13.26-159.53,19.49-231.68,20.16Z"/>
  <path d="M358.92,55.15c-26.89,1.5-74.94,1.26-110.79.74v-.05c-.55,0-1.12.02-1.68.02-.56,0-1.13-.02-1.68-.02v.05c-35.85.51-83.9.75-110.79-.74-53.5-2.97-106.4-10.28-112.93-12.54,0,0,0,.02.02.04.41.62,6.69,10.23,9.16,12.33.07.05.16.12.23.18,19,6.78,131.22,13.57,215.99,11.5,84.76,2.06,196.98-4.72,215.99-11.5.07-.05.16-.12.23-.18,2.48-2.11,8.76-11.71,9.16-12.33.02-.02.02-.04.02-.04-6.53,2.26-59.43,9.57-112.93,12.54Z"/>
  <path class="cls-6" d="M248.13,60.12v-.05c-.55,0-1.13.02-1.68.03-.55,0-1.13-.02-1.68-.03v.05c-60.52.89-164.58.8-210.72-9.18.59,9.04,1.2,13.46,1.77,15.79.27,1.12.53,1.76.77,2.22.08.15.18.3.29.47.1.17.2.32.31.47.08.11.18.25.31.36.06.06.12.13.18.23.1.11.2.23.31.34.92.95,2.1,1.91,3.28,2.86,21.79,4.98,138.86,6.59,205.18,6.5,66.32.09,183.38-1.52,205.18-6.5,1.18-.95,2.37-1.91,3.28-2.86.1-.11.2-.23.31-.34.06-.09.12-.17.18-.23.12-.11.22-.25.31-.36.1-.15.2-.3.31-.47.1-.17.2-.32.29-.47.24-.45.51-1.1.77-2.22.57-2.33,1.18-6.75,1.77-15.79-46.13,9.98-150.2,10.07-210.72,9.18Z"/>
  <path class="cls-7" d="M380.74,74.18c-20.42.99-92.29.69-132.61.32v-.03c-.55,0-1.12.01-1.68.02-.56,0-1.14-.01-1.68-.02v.03c-40.32.37-112.19.67-132.61-.32-35.71-1.76-71.03-6.01-76.33-7.45.27,1.12.53,1.76.77,2.22.08.15.18.3.29.47.18.27.39.55.61.83.06.06.12.13.18.23.1.11.2.23.31.34.92.95,2.1,1.91,3.28,2.86,21.79,4.98,138.86,6.59,205.18,6.5,66.32.09,183.38-1.52,205.18-6.5,1.18-.95,2.37-1.91,3.28-2.86.1-.11.2-.23.31-.34.06-.09.12-.17.18-.23.22-.28.43-.57.61-.83.1-.17.2-.32.29-.47.24-.45.51-1.1.77-2.22-5.3,1.44-40.62,5.69-76.33,7.45Z"/>
  <g class="cls-4">
    <ellipse class="cls-5" cx="377.28" cy="449.19" rx="31.85" ry="5.31"/>
    <ellipse class="cls-5" cx="140.21" cy="449.19" rx="31.85" ry="5.31"/>
  </g>
  <g>
    <path d="M147.28,369.02c0-.85-.75-1.53-1.68-1.53h-35.56c-.93,0-1.68.69-1.68,1.53v78.97c0,.13.05.26.08.38-.05.11-.08.23-.08.35,0,2.22,8.71,4.02,19.46,4.02s19.46-1.8,19.46-4.02c0-.12-.04-.23-.08-.35.04-.12.08-.25.08-.38v-78.97Z"/>
    <ellipse class="cls-3" cx="127.82" cy="368.29" rx="19.46" ry="4.02"/>
  </g>
  <polygon class="cls-6" points="105.66 107.73 105.66 133.18 149.98 133.18 149.98 107.73 128.67 120.46 105.66 107.73"/>
  <g>
    <g>
      <path class="cls-6" d="M144.68,77.95s0,0,0,0l-.03-.3h-.02c-.52-2.63-7.84-4.71-16.8-4.71s-16.28,2.08-16.8,4.71h0l-.02.18s-.02.08-.02.12c0,.01,0,.02,0,.04v8.78l.3.94s.02.04.02.05h33.07s.02-.04.02-.05l.3-.94v-8.81h0s0,0,0,0Z"/>
      <ellipse class="cls-1" cx="127.82" cy="86.77" rx="16.85" ry="5.01"/>
    </g>
    <ellipse class="cls-7" cx="127.82" cy="86.77" rx="16.85" ry="5.01"/>
  </g>
  <path class="cls-6" d="M141.35,365.6c0,.14-.04.25-.05.37.04.11.05.21.05.34,0,2.12-6.05,3.84-13.53,3.84s-13.52-1.72-13.52-3.84c0-.12.02-.23.05-.34-.02-.12-.05-.23-.05-.37V89.3c0-2.21,6.05-4.02,13.52-4.02s13.53,1.8,13.53,4.02v276.3Z"/>
  <g>
    <path d="M345.62,369.02c0-.85.75-1.53,1.68-1.53h35.56c.93,0,1.68.69,1.68,1.53v78.97c0,.13-.05.26-.08.38.05.11.08.23.08.35,0,2.22-8.71,4.02-19.46,4.02s-19.46-1.8-19.46-4.02c0-.12.04-.23.08-.35-.04-.12-.08-.25-.08-.38v-78.97Z"/>
    <ellipse class="cls-3" cx="365.08" cy="368.29" rx="19.46" ry="4.02"/>
  </g>
  <polygon class="cls-6" points="387.24 107.73 387.24 133.18 342.92 133.18 342.92 107.73 364.23 120.46 387.24 107.73"/>
  <g>
    <g>
      <path class="cls-6" d="M381.93,77.95s-.02-.08-.02-.12l-.02-.18h0c-.52-2.63-7.84-4.71-16.8-4.71s-16.28,2.08-16.8,4.71h-.02l-.03.3s0,0,0,0c0,0,0,0,0,0h0v8.81l.3.94s.02.04.02.05h33.07s.02-.04.02-.05l.3-.94v-8.78s0-.02,0-.04Z"/>
      <ellipse class="cls-1" cx="365.08" cy="86.77" rx="16.85" ry="5.01"/>
    </g>
    <ellipse class="cls-7" cx="365.08" cy="86.77" rx="16.85" ry="5.01"/>
  </g>
  <path class="cls-6" d="M351.55,365.6c0,.14.04.25.05.37-.04.11-.05.21-.05.34,0,2.12,6.05,3.84,13.53,3.84,7.47,0,13.52-1.72,13.52-3.84,0-.12-.02-.23-.05-.34.02-.12.05-.23.05-.37V89.3c0-2.21-6.05-4.02-13.52-4.02-7.48,0-13.53,1.8-13.53,4.02v276.3Z"/>
  <polygon class="cls-6" points="248.13 77.65 244.77 77.65 228.67 77.65 228.67 127.19 244.77 127.19 248.13 127.19 264.23 127.19 264.23 77.65 248.13 77.65"/>
  <polygon class="cls-6" points="248.13 116.58 244.77 116.58 76.52 116.58 80.05 146.65 244.77 146.65 248.13 146.65 412.85 146.65 416.38 116.58 248.13 116.58"/>
  <polygon class="cls-7" points="76.52 116.58 416.38 116.58 415.14 127.19 76.52 127.19 76.52 116.58"/>
</svg>