<?xml version="1.0" encoding="UTF-8"?>
<svg xmlns="http://www.w3.org/2000/svg" version="1.1" viewBox="0 0 454.97 171.99">
  <!-- Generator: Adobe Illustrator 28.6.0, SVG Export Plug-In . SVG Version: 1.2.0 Build 709)  -->
  <g>
    <g id="Capa_1">
      <g>
        <path d="M448.11,159.62c-1.61.37-3.28.65-4.96.85-9.91,1.16-19.99-.51-29.73-2.17-16.93-2.88-33.85-5.76-50.79-8.64h0c-.69-.46-1.38-.91-2.09-1.33-11.29-6.88-24.33-9.72-37.58-11.36-5.11-.64-10.26-1.08-15.34-1.51-4.62-.4-9.48-.76-13.74,1.1-1.03.44-1.98,1.02-2.86,1.7-4.07,3.13-6.42,8.5-6.06,13.68.02.19.03.38.05.57-44.14-6.02-113.02-19.73-158.9-29.81-8.61-1.9-17.29-4.08-24.88-7.36-11-8.57-20.33-19.3-27.17-31.43-2.52-4.47-4.71-9.11-6.51-13.92-1.91,1.85-3.95,3.55-6.11,5.09-5.24,3.73-11.14,6.53-17.34,8.31-15.78-3.73-35.9-9.85-37.43-19.8-.5-3.25-.76-6.09-.71-8.71.11-8.31,3.22-14.44,11.16-24.38,9.05-11.32,31.62-23.07,47.01-18.28,6.27,1.95,19.74,4.36,28.64,8.68,3.67,1.78,6.57,3.9,7.86,6.43,1,1.97,2.14,3.99,4.34,5.41,2.74,1.79,6.68,2.4,10.42,2.85,8.44.99,17.32,1.61,25.5,3.22,5.62,1.1,10.93,2.68,15.54,5.18,6.35,3.43,10.66,8.28,16.24,12.29,3.06,2.2,6.8,4.2,10.87,5.37,3.36.97,6.95,1.38,10.54.89,1.59-.21,3.23-.65,4.19-1.54,2.12-1.95,0-4.63-.28-7.04-.18-1.59.52-3.07,1.81-4.34,2.7-2.64,7.96-4.33,12.87-4.14,7.26.28,37.76,13.75,53.43,32.9,16.75,20.47,47.52,34.33,59.54,38.91,12.03,4.59,26.17,5.67,39.87,6.66,16.04,1.16,43.39,11.78,62.4,21.15,14.56,7.17,24.24,13.61,20.21,14.5Z" style="fill: #fff;"/>
        <path d="M362.62,149.66c-4.51-.77-9.03-1.54-13.55-2.31-4.69-.8-9.65-1.6-14.32-.71-4.67.88-5.29,4.74-7.57,7.3-2.46,2.77-18.87,1.73-42.19-1.45-.03-.19-.03-.38-.05-.57-.36-5.18,1.98-10.54,6.06-13.68.88-.68,1.84-1.25,2.86-1.7,4.26-1.85,9.11-1.5,13.74-1.1,5.08.44,10.23.88,15.34,1.51,13.25,1.64,26.29,4.48,37.58,11.36.71.43,1.4.87,2.09,1.33Z" style="fill: #d9f0f8;"/>
        <path d="M101.22,115.34c-2.9-1.25-5.64-2.66-8.15-4.27-8.45-5.44-13.82-12.86-22.56-18.08-2.66-1.58-5.67-2.99-7.45-5.08-.66-.77-8.94-2.16-18.97-4.52,6.2-1.78,12.1-4.57,17.34-8.31,2.16-1.54,4.2-3.24,6.11-5.09,1.8,4.81,3.99,9.45,6.51,13.92,6.84,12.13,16.17,22.86,27.17,31.43Z" style="fill: #d9f0f8;"/>
        <path d="M115.37,35.6c8.44.99,17.32,1.61,25.5,3.22-10.73,3.55-20.35,3.35-25.39,13.45-1.74,3.48-6.62,5.18-9.58,3.48-4.11-2.38-11.13-14.03-11.09-18.78.04-5.41-.65-10.84-2.05-16.07,3.67,1.78,6.57,3.9,7.86,6.43,1,1.97,2.14,3.99,4.34,5.41,2.74,1.79,6.68,2.4,10.42,2.85Z" style="fill: #d9f0f8;"/>
        <path d="M216.84,68.48c-.65,3.23-3.8,5.51-7.06,6.03-3.25.52-6.56-.4-9.62-1.64-6.25-2.51-11.95-6.37-16.63-11.21,3.36.97,6.95,1.38,10.54.89,1.59-.21,3.23-.65,4.19-1.54,2.12-1.95,0-4.63-.28-7.04-.18-1.59.52-3.07,1.81-4.34,1.06,1.38,2.23,2.67,3.57,3.78,2.77,2.29,6.16,3.69,9,5.89,2.84,2.19,5.19,5.67,4.47,9.18Z" style="fill: #d9f0f8;"/>
      </g>
    </g>
  </g>
</svg>