<?xml version="1.0" encoding="UTF-8"?>
<svg id="Capa_1" xmlns="http://www.w3.org/2000/svg" xmlns:xlink="http://www.w3.org/1999/xlink" viewBox="0 0 1920 1080">
  <defs>
    <style>
      .cls-1 {
        opacity: .75;
      }

      .cls-2 {
        fill: #0067a0;
      }

      .cls-3 {
        fill: #fff;
      }

      .cls-4 {
        fill: #e5ebfb;
      }

      .cls-5 {
        fill: #046fab;
      }

      .cls-6 {
        fill: #d9f0f8;
      }

      .cls-7 {
        fill: #68c7f8;
      }

      .cls-8 {
        fill: #1792ce;
      }

      .cls-9 {
        fill: url(#Degradado_sin_nombre_189);
      }

      .cls-10 {
        opacity: .5;
      }

      .cls-11 {
        fill: #0a7cb9;
      }

      .cls-12 {
        fill: #43afe6;
      }
    </style>
    <linearGradient id="Degradado_sin_nombre_189" data-name="Degradado sin nombre 189" x1="3149.79" y1="1159.9" x2="3142.83" y2="803.49" gradientTransform="translate(-212.98 -68.89) rotate(1.12) scale(1.06 1)" gradientUnits="userSpaceOnUse">
      <stop offset="0" stop-color="#182e51"/>
      <stop offset="1" stop-color="#144e75"/>
    </linearGradient>
  </defs>
  <g>
    <rect class="cls-2" x="-97.2" y="-2.57" width="2130.92" height="683.73"/>
    <path class="cls-5" d="M1977.09,187.69c-143.05,15.1-229.48-25.56-414.26-67.38-184.78-41.82-232.46-13.94-594.57,29.3-362.11,43.24-201.17,5.55-462-12.38-260.82-17.92-302.45-21.57-419.94-28.81-58.62-3.61-125.22,8.02-183.53,26.79v478.81h1490.15l640.77-34.63V184.44c-18.46.17-37.35,1.21-56.63,3.25Z"/>
    <path class="cls-11" d="M1991.99,287.59c-146.79,7.98-267.76,21.01-437.61-29.52-169.85-50.53-226.14-25.21-599.31-.02-373.17,25.18-201.37-4.34-454.35-34.89-252.99-30.54-293.11-36.2-407.33-49.14-56.96-6.45-126.73,1.82-190.6,17.57v482.66l1324.04,65.31,806.88-46.41v-406.73c-15.09.1-29.11.48-41.72,1.16Z"/>
    <path class="cls-8" d="M1977.09,378.2c-143.05,15.1-646.73-81.32-1008.83-38.07-362.11,43.24-201.17,5.55-462-12.38-260.82-17.92-302.45-21.57-419.94-28.81-58.62-3.61-125.22,8.02-183.53,26.79v478.81h1490.15l640.77-34.63v-394.96c-18.46.17-37.35,1.21-56.63,3.25Z"/>
    <path class="cls-12" d="M2033.71,847.52v-429.74c-24.77-2.76-49.31-3.7-72.58-2.32-117.48,6.97-158.04,42.53-419.94,27.73-288.32-16.29-871.79-56.55-1056.57-16.29-184.78,40.25-242.08,7.83-435.8,17.89-55.19,2.87-103.33,13.46-146.04,28.3v374.42H2033.71Z"/>
    <path class="cls-7" d="M2033.71,1079.5V494.28c-25.95-.5-52.62,2.03-79.81,8.11-140.95,31.5-656.18-118.15-1012.33-29.68-356.15,88.47-200.2,16.97-462.95-4.78-262.75-21.75-304.79-26.59-423.03-34.94-49.69-3.51-103.64,12.02-152.8,37.8v608.71H2033.71Z"/>
  </g>
  <g class="cls-1">
    <path class="cls-3" d="M1047.4,460.08c-14.35,6.36-30.74-.25-46.37-1.56-22.43-1.89-44.08,7.34-65.36,14.68-112.27,38.76-234.83,27.6-353.05,15.97-124.63-12.26-249.27-24.53-373.91-36.79-14-1.37-27.99-2.75-41.99-4.12-88.15-8.68-179.5-18.35-255.78-63.37-19.92-11.75-38.93-26.24-51.09-45.91-12.48-20.17-16.86-44.31-18.5-67.97-3.88-56.26,6.42-112.34,17.6-167.72.79-3.9,1.58-7.81,2.37-11.71,1.88-9.25,4.25-19.31,11.74-25.07,5.24-4.02,12.08-5.16,18.6-6.19,24.78-3.87,107.31,1.7,128.99,38.52,3.59,6.08,6.71,12.71,12.12,17.26,5.11,4.28,11.69,6.25,17.82,8.85,31.79,13.44,59.66,46.35,93.26,38.51-10.57-17.9-2.41-43.23,15.27-54.18,6.01-3.71,12.74-5.86,19.69-6.6,13.52-1.47,27.84,2.36,39.06,10.26,16.98,11.97,13.1,53.73,4.25,54.43,12.95,5.9,26.44,12.24,35.05,23.58,8.61,11.32,10.34,29.25-.13,38.89,66.67,30.28,142.78,27.99,215.96,30.46,6.01.21,12.36.54,17.37,3.87,10.12,6.73,9.78,21.26,11,33.36,3.55,34.89,29.51,64.4,60.36,81.1,30.85,16.68,66.26,22.58,101.02,27.2,21.77,2.89,44.21,5.36,65.45-.19,15.99-4.19,30.6-12.75,46.67-16.62,16.08-3.87,35.49-1.66,45.3,11.65,6.23,8.47,7.77,20.34,15.99,26.88,5.11,4.07,11.87,5.27,18.33,6.33,12.09,1.98,24.17,3.97,36.25,5.94,11.21,1.84,24.66,2.91,31.94-5.8,3.27-3.89,4.55-9.08,7.48-13.23,11.51-16.29,36.79-7.45,54.29,2.11,17.49,9.57,44.48,15.68,53.04-2.32,1.38-2.88,3.65-5.02,6.33-6.41,8.77-4.58,21.99-1.25,22.67,9.82.89,14.46-5.84,30.22-19.08,36.09Z"/>
    <path class="cls-4" d="M241.42,230.48c-6.17,11.27-19.76,15.81-32.1,19.41-20.29,5.9-43.75,11.34-61.56.62,13.23,8.87,23.82,21.64,30.05,36.29,1.43,3.35,2.65,7.16,1.38,10.58-1.83,4.97-7.85,6.76-13.08,7.6-44.5,7.15-91.99-7.71-124.5-38.93-3.88-3.72-7.81-9.22-5.32-13.98,1.66-3.15,5.49-4.38,8.96-5.23,12.84-3.07,26.02-4.7,39.23-4.8-31.17-17.45-62.34-34.91-93.5-52.35-3.71-2.08-7.93-5.03-7.7-9.27.14-2.52,1.88-4.62,3.14-6.81,4.88-8.52,2.39-19.81-3.67-27.55-6.07-7.73-15.05-12.58-24.02-16.6-21.23-9.52-43.96-15.67-67.1-18.15-9.11-.97-18.47-1.43-26.92-4.99-2.04-.86-3.96-1.87-5.77-3.01.79-3.9,1.58-7.81,2.37-11.71,1.88-9.25,4.25-19.31,11.74-25.07,5.24-4.02,12.08-5.16,18.6-6.19,24.78-3.87,107.31,1.7,128.99,38.52,3.59,6.08,6.71,12.71,12.12,17.26,5.11,4.28,11.69,6.25,17.82,8.85,31.79,13.44,59.66,46.35,93.26,38.51-10.57-17.9-2.41-43.23,15.27-54.18,6.01-3.71,12.74-5.86,19.69-6.6,7.68,4.54,14.84,10.78,21.42,17.74,16.8,17.8,14.92,52.85-7.89,61.7,13.98-.61,28.78,1.93,39.61,10.81,10.82,8.87,16.21,25.26,9.48,37.53Z"/>
    <path class="cls-4" d="M1047.4,460.08c-14.35,6.36-30.74-.25-46.37-1.56-22.43-1.89-44.08,7.34-65.36,14.68-112.27,38.76-234.83,27.6-353.05,15.97-124.63-12.26-249.27-24.53-373.91-36.79,5.46-5.85,9.85-12.23,11.39-20.09.83-4.18.95-8.95,4.06-11.87,2.26-2.13,5.55-2.66,8.63-2.98,35.89-3.84,73.96,7.07,107.34-6.69-21.48-12.17-19.42-46.9-1.08-63.4,18.35-16.5,45.61-18.43,70.07-15.23,15.77,2.08,32.32,6.49,42.95,18.33,10.64,11.83,11.95,32.97-.96,42.26-6.01,4.32-14.24,5.72-18.63,11.67-4.75,6.43-2.78,16.02,2.46,22.06,5.24,6.03,12.96,9.27,20.51,11.91,26.8,9.34,55.35,13.59,83.7,12.49-8.16-9.68-19.63-16.51-32.01-19.09,8.06-12.56,26.1-12.45,40.94-10.91,38.36,3.98,76.71,7.96,115.06,11.95.31,17.78,13.06,34.67,30.09,39.81,17.02,5.15,36.99-1.83,47.1-16.47-6.51-4.28-15.07-2.24-22.86-2.04-7.8.21-17.52-3.92-17.16-11.7.31-6.67,7.74-10.33,14.14-12.19,28.93-8.44,60.02-9.33,89.36-2.56,8.43,1.96,17.14,4.77,23.05,11.08,4.28,4.58,6.72,10.58,10.78,15.36,15.42,18.15,44.22,10.99,67.19,4.66,39.59-10.9,81.17-14.53,122.06-10.64,6.14.58,12.87,1.21,17.99-2.22,10.04-6.71,5.92-20.73-1.06-31.7,8.77-4.58,21.99-1.25,22.67,9.82.89,14.46-5.84,30.22-19.08,36.09Z"/>
    <path class="cls-4" d="M-122.91,247.46c18.83-2.76,37.54,4.47,55.21,11.55,5.33,2.14,11.14,4.71,13.58,9.91s-1.65,13.14-7.23,11.75c13.11,6.38,26.22,12.76,39.34,19.14,4.59,2.23,9.55,4.85,11.5,9.56,1.95,4.72-1.66,11.6-6.65,10.53,22.05,9.27,44.09,18.53,66.14,27.8,7.93,3.33,16.24,6.95,21.45,13.8.79,1.04,1.53,2.28,1.33,3.57-.26,1.65-1.91,2.66-3.43,3.34-22.14,9.75-46.42-6.14-70.16-10.82-6.72-1.33-14.47-1.46-19.54,3.13-5.08,4.6-3.99,15.17,2.78,16.23-9.99-3.06-19.98-6.13-29.97-9.19-3.37-1.03-7.27-2.63-8-6.07-1.14-5.43,6.1-8.23,11.53-9.36,5.43-1.13,12.1-6.22,8.88-10.73-.83-1.16-2.17-1.85-3.51-2.35-10.25-3.83-23.03.85-31.95-5.5-11.38-8.1-7.14-26.81-15.46-38.04-10.93-14.75-38.72-10.84-45.75-27.79-2.61-6.29-.88-14.12,4.13-18.73,5.01-4.61,12.96-5.68,19.01-2.55l-13.23.83Z"/>
  </g>
  <g class="cls-1">
    <path class="cls-3" d="M2078.39,298.32c-.29,19.41-1.39,38.79-3.3,58.15-.36,3.91-.77,7.82-1.23,11.74-2.21,19.23-5.2,38.4-8.2,57.56-1.61,10.34-3.56,21.25-12.82,29.49-9.28,8.25-28.59,12.18-40.01,5.29-10.33-6.25-9.13-17.19-9.07-26.6.06-9.41-4.88-21.11-18.55-22.53-5.44-.58-10.9.77-16.05,2.08-30.5,7.79-61,15.56-91.5,23.35-18.17,4.63-36.31,9.27-54.48,13.89-33.97,8.67-72.27,17.29-105.41,7.22-35.88-10.91-58.78-42.02-98.08-41.58-26.38.3-46.53,15.18-65.86,27.41-25.81,16.37-67.48,29.48-94.33,14.54-.52-.29-1.04-.59-1.54-.9-5.14-3.16-9.65-7.38-16.46-8.28-13.84-1.81-21.13,10.28-29.52,18-18.14,16.71-54.55,15.88-84.84,13.36-9.81-.81-22.69-4.25-20.91-10.86.89-3.31,5.39-5.48,9.07-7.73,10.71-6.51,16.1-16.49,15.52-26.25,3.91-1.74,7.96-3.38,12.14-4.81,11.37-3.89,24.43-6.68,32.05-13.62,3.88-3.52,5.95-7.8,9.02-11.65,11.09-13.94,33.77-21.29,54.98-27.77-19.83-.45-35.17,11.38-53.61,16.38-12.45,3.38-26.18,3.57-39.5,4.42-55.98,3.56-109.98,19.79-151.92,45.27-16.65,0-33.31-1.19-49.58-3.65-6.48-.99-13.49-2.41-17.24-6.15-2.85-2.83-3.26-6.52-2.6-9.93,2.74-14.5,21.61-24.81,39.67-32.73,42.57-18.65,89.08-33.13,137.67-42.82,10.74-2.15,23.41-3.84,32.25.83,10.28,5.42,10.19,16.92,20.72,22.12,9.88,4.87,24.4,1.54,32.92-4.4,8.52-5.96,13.18-13.92,20.09-20.77,31.83-31.54,98.36-31.67,151.33-44.46,8.99-2.18,18.15-4.99,23.88-10.19,7.54-6.82,7.49-16.11,11.57-24.2,10.27-20.39,45.01-30.03,76.56-31.68,31.58-1.65,63.86,2.09,94.65-2.91,3.13-.51,6.31-1.14,8.81-2.5,5.66-3.06,6.17-8.62,7.13-13.49,6.15-31.47,48.13-54.7,92.26-64.92,32.61-7.55,67.07-9.77,101.35-12.65,20.28,4.85,47.97-5.22,68.85,1.5,18.53,5.97,23.41,22.11,25.61,35.99,6.31,40.33,9.16,80.9,8.52,121.44Z"/>
    <path class="cls-4" d="M2015.09,221.26c-34.72,3.94-74.25,7.09-101.59-8.02-3.86-2.13-7.49-4.64-12.2-5.73-6.34-1.47-13.3-.08-19.47,1.68-8.15,2.32-16.78,6.09-18.12,12.04-1.34,5.95,10.86,11.86,16.48,7.22,3.55,12.95-21.16,21.86-24.02,34.9-.33,1.49-.3,3.13.97,4.37,1.29,1.25,3.56,1.82,5.72,2.26,41.56,8.38,87.47-6.61,129.08,1.66,4.3.86,8.98,1.95,13.12.77,3.29-.94,5.41-3.12,7.14-5.25,12.52-15.39,14.62-34.54,5.6-51.03l-2.7,5.14Z"/>
    <path class="cls-4" d="M2078.39,298.32c-.29,19.41-1.39,38.79-3.3,58.15-3.73,2.46-7.92,4.55-12.7,5.93-6.71,1.92-14.13,2.31-21.38,2.67-31.88,1.6-63.75,3.18-95.63,4.78-5.53.27-11.46.5-16.31-1.33-7.8-2.97-9.82-9.94-9.97-16.02-.18-7.41,1.37-15.26,8.1-21.06,6.93-5.98,19.41-10.24,19.4-17.86,0-5.42-6.9-9.74-14.22-11.89-7.31-2.13-15.41-2.82-22.64-5.08-1.89-.6-3.83-1.39-4.56-2.71-1.61-2.85,3.31-5.34,7.55-6.37,23.09-5.6,48.48-3.49,72.78-1.32,24.92,2.22,49.81,4.45,74.73,6.68l-6.02-3.86c8.05,3.11,16.11,6.2,24.16,9.29Z"/>
    <path class="cls-4" d="M1625.84,285.65c6.38-4.48,12.76-8.96,19.14-13.43,6.86-4.82,13.93-9.74,22.86-12.58,8.92-2.85,20.24-3.21,28.08.85,10.12,5.24,10.82,15.77,6.08,23.81-4.73,8.04-13.58,14.59-20.21,21.98-6.63,7.39-11.03,16.73-5.85,24.64,1.86,2.83,4.94,5.75,3.62,8.72-.84,1.89-3.3,3.21-5.7,4.32-29.02,13.39-70.55,14.86-90.78,34.37-2.04,1.96-4.38,4.31-7.91,4.35-2.52.03-4.71-1.19-6.23-2.56-8.84-7.97-1.38-19.23,5.88-27.91,7.25-8.68,13.77-20.46,3.8-27.78-10.4-7.64-28.88-3.41-42.52,1.31-5.43-3.02,1.56-8.66,8.07-10.44,13.68-3.74,28.45-5.24,42.38-8.53,13.93-3.29,27.7-8.91,33.98-17.99,3.13-4.52,4.72-10.09,11.01-12.66l-5.72,9.54Z"/>
    <path class="cls-4" d="M1439.02,377.84c-21.22,6.47-43.89,13.82-54.98,27.77-3.07,3.85-5.14,8.13-9.02,11.65-7.63,6.94-20.68,9.73-32.05,13.62-4.19,1.43-8.23,3.06-12.14,4.81l-95.28,5.73h-.17s-41.4,2.5-41.4,2.5c41.95-25.48,95.94-41.71,151.92-45.27,13.32-.85,27.05-1.03,39.5-4.42,18.44-5,33.78-16.84,53.61-16.38Z"/>
    <path class="cls-4" d="M1877.67,436.85c-18.17,4.63-36.31,9.27-54.48,13.89-33.97,8.67-72.27,17.29-105.41,7.22-35.88-10.91-58.78-42.02-98.08-41.58-26.38.3-46.53,15.18-65.86,27.41-25.81,16.37-67.48,29.48-94.33,14.54,33.21-6.8,60.36-24.44,87.96-39.46,31.05-16.91,71.11-31.92,108.92-23.58,20.81,4.61,37.09,15.6,56.21,22.85,49.1,18.63,110.07,10.81,165.08,18.71Z"/>
  </g>
  <path class="cls-3" d="M1420.14,713.03c.55-.02,1.11-.02,1.66-.03.27.05.55.08.82.12l-2.49-.09Z"/>
  <path class="cls-6" d="M1414.17,726.74c.27.05.55.08.82.12l-2.49-.09c.55-.02,1.11-.02,1.66-.03Z"/>
  <path class="cls-6" d="M1420.14,713.03c.55-.02,1.11-.02,1.66-.03.27.05.55.08.82.12l-2.49-.09Z"/>
  <g>
    <path class="cls-3" d="M1706.82,209.9c-1.3.87-2.73,1.62-4.26,2.26-9.69,4.04-21.66,4.33-33.01,4.52-6.59.11-13.17.21-19.75.32-19.61-2.78-40.75-6.35-52.88-17.17-3.25-2.9-5.86-6.32-10.45-8.18-.9-.37-1.83-.66-2.81-.87-3.71-.9-7.88-.95-11.87-.95-15.78-.02-31.56-.03-47.33-.03-1.62-3.89,5.49-6.61,11.25-7.6,21.5-3.72,43.74-5.46,65.92-5.17,8.58.11,17.58.61,24.74,3.83,5.43,2.43,9.39,6.26,15.08,8.39,11.02,4.11,24.48.82,36.57-1.5,12.1-2.3,27.75-2.66,34.35,4.62,5.04,5.56,1.51,12.94-5.54,17.52Z"/>
    <path class="cls-6" d="M1706.82,209.9c-1.3.87-2.73,1.62-4.26,2.26-9.69,4.04-21.66,4.33-33.01,4.52-6.59.11-13.17.21-19.75.32-19.61-2.78-40.75-6.35-52.88-17.17-3.25-2.9-5.86-6.32-10.45-8.18-.9-.37-1.83-.66-2.81-.87,3.45-.06,6.88-.06,10.33-.02,8.58.11,17.58.61,24.74,3.83,5.43,2.43,9.39,6.26,15.08,8.39,11.02,4.11,24.48.82,36.57-1.5,12.1-2.3,27.75-2.66,34.35,4.62,1.08,1.19,1.77,2.47,2.09,3.78Z"/>
  </g>
  <g class="cls-10">
    <path class="cls-3" d="M-110.33,56.58c-.25,9.09-.12,18.19.39,27.27.09,1.84.21,3.67.34,5.51.65,9.03,1.68,18.03,2.7,27.04.55,4.86,1.25,9.99,5.42,13.93,4.18,3.95,13.15,5.97,18.64,2.85,4.96-2.83,4.62-7.97,4.78-12.38.16-4.41,2.71-9.84,9.14-10.38,2.56-.22,5.09.46,7.48,1.12,14.13,3.93,28.27,7.85,42.4,11.78,8.42,2.33,16.83,4.68,25.24,7.01,15.74,4.37,33.51,8.77,49.24,4.35,17.03-4.78,28.37-19.14,46.77-18.57,12.35.39,21.5,7.54,30.31,13.45,11.77,7.91,31.02,14.43,43.9,7.68.25-.13.5-.27.74-.41,2.47-1.43,4.67-3.37,7.88-3.73,6.52-.72,9.69,5.01,13.47,8.71,8.17,8,25.24,7.94,39.48,7.04,4.61-.29,10.71-1.78,10.01-4.9-.35-1.56-2.41-2.62-4.1-3.7-4.89-3.15-7.22-7.87-6.75-12.44-1.8-.85-3.66-1.66-5.59-2.36-5.25-1.93-11.31-3.35-14.75-6.67-1.75-1.68-2.63-3.71-3.99-5.54-4.92-6.63-15.4-10.29-25.21-13.51,9.3-.03,16.25,5.65,24.79,8.17,5.77,1.7,12.2,1.91,18.42,2.43,26.15,2.18,51.13,10.29,70.27,22.61,7.8.16,15.63-.25,23.3-1.25,3.05-.4,6.37-1,8.2-2.72,1.39-1.3,1.66-3.02,1.42-4.63-1-6.82-9.63-11.82-17.93-15.7-19.57-9.13-41.07-16.34-63.64-21.33-4.99-1.11-10.89-2.02-15.12.09-4.92,2.45-5.11,7.83-10.14,10.17-4.73,2.19-11.46.5-15.33-2.37-3.87-2.87-5.9-6.64-9-9.92-14.29-15.07-45.45-15.74-70.01-22.22-4.17-1.1-8.4-2.5-10.99-4.99-3.4-3.26-3.19-7.62-4.94-11.45-4.41-9.65-20.49-14.48-35.24-15.55-14.76-1.06-29.96.39-44.28-2.24-1.45-.27-2.93-.59-4.08-1.25-2.59-1.49-2.72-4.09-3.07-6.38C27.97,6.4,8.76-4.87-11.7-10.06c-15.13-3.84-31.23-5.19-47.23-6.86-9.6,2.09-22.37-2.89-32.28.07-8.8,2.63-11.41,10.14-12.71,16.62-3.76,18.83-5.9,37.82-6.4,56.81Z"/>
    <path class="cls-4" d="M101.92,54.82c-2.9-2.16-5.8-4.31-8.7-6.47-3.12-2.32-6.33-4.69-10.46-6.11-4.12-1.42-9.42-1.69-13.17.14-4.85,2.36-5.38,7.29-3.32,11.1,2.06,3.81,6.07,6.96,9.03,10.48s4.84,7.94,2.25,11.6c-.93,1.31-2.43,2.65-1.87,4.05.36.89,1.48,1.54,2.58,2.08,13.33,6.54,32.76,7.61,41.84,16.94.91.94,1.97,2.06,3.62,2.11,1.18.04,2.23-.51,2.97-1.14,4.3-3.65,1.03-9-2.2-13.13s-6.05-9.71-1.23-13.05c5.02-3.48,13.6-1.33,19.89,1.01,2.6-1.36-.56-4.07-3.57-4.96-6.33-1.88-13.22-2.72-19.68-4.39s-12.8-4.43-15.56-8.74c-1.38-2.15-2.01-4.77-4.91-6.03l2.49,4.52Z"/>
    <path class="cls-4" d="M187.61,99.73c9.81,3.23,20.29,6.88,25.21,13.51,1.36,1.83,2.24,3.86,3.99,5.54,3.44,3.32,9.49,4.75,14.75,6.67,1.93.71,3.8,1.51,5.59,2.36l44.52,3.56h.08s19.34,1.56,19.34,1.56c-19.14-12.32-44.12-20.43-70.27-22.61-6.22-.52-12.65-.73-18.42-2.43-8.54-2.51-15.49-8.2-24.79-8.17Z"/>
    <path class="cls-4" d="M-19.05,123.33c8.42,2.33,16.83,4.68,25.24,7.01,15.74,4.37,33.51,8.77,49.24,4.35,17.03-4.78,28.37-19.14,46.77-18.57,12.35.39,21.5,7.54,30.31,13.45,11.77,7.91,31.02,14.43,43.9,7.68-15.42-3.49-27.79-12-40.42-19.3-14.21-8.21-32.68-15.61-50.56-12.05-9.84,1.97-17.69,6.97-26.79,10.18-23.37,8.28-51.78,4.05-77.71,7.24Z"/>
  </g>
  <path class="cls-9" d="M2264.62,906.8c82.69-1.77,160.37-27.69,195.69-65.3-13.72,12.2,21.69,24.26,49.51,26.23,115.88,8.22,236.78-19.54,299.2-68.7,57.23,16.99,112.82,35.45,166.49,55.28,18.7,6.91,39.55,14.36,62.2,13.31,13.56-.63,25.59-4.28,37.12-7.83,35.92-11.09,71.83-22.18,107.75-33.27,22.37,22.32,64.53,39.47,112.07,45.59,42.9-17.3,106.84-4.25,161.97-6.81,54.29-2.52,102.9-22.6,118.63-49,24.39,19.05,50.57,38.95,90.08,49.51,39.51,10.57,96.24,7.53,115.93-12.27,28.66,15.55,61.38,29.17,96.97,40.36,43.75-27.23,93.92-51.75,149.16-72.92,7.35-2.82,15.53-5.7,24.87-5.58,9.64.12,18.03,3.41,25.62,6.53,38.91,16.01,77.83,32.01,116.74,48.02,21.17,8.71,42.9,17.75,55.97,29.87,14.24,13.2,16.66,28.61,18.77,43.48,4.42,31.05,8.84,62.1,13.25,93.14.99,6.98,1.9,14.26-3.31,20.65-8.37,10.25-30.02,15.6-50.16,19.89-277.68,59.13-584.83,77.41-888.81,78.94-303.97,1.53-608.25-13.06-912.44-16.88-144.91-1.82-292.93-1.45-431.18-25.53-22.11-3.85-44.57-8.55-60.96-17.12-35.61-18.61-31.01-48.48-16.15-72.72,22.36-36.47,63.43-70.44,123.57-92.99,60.15-22.55,140.38-32.62,213.99-22.43l7.46-1.44Z"/>
  <g class="cls-10">
    <path class="cls-3" d="M188.06,38.61l.09-.76c-.2,6,4.82,11.84,11.76,15.64,7.57,4.13,17.13,6.19,26.64,7.47,8.22,1.11,16.59,1.71,24.97,1.8,4.89.05,9.9-.09,14.44-1.32,1.99-.54,3.82-1.28,5.46-2.19,6.11-3.34,9.71-8.85,10-14.28.17-3.26-.76-6.65-3.61-9.26-2.85-2.62-7.89-4.27-12.52-3.49-3.07.52-6.99,1.81-8.81.04-.47-.45-.61-1.03-.7-1.58-.4-2.53.38-5.1-.04-7.64-1.04-6.28-9.96-11.23-19.23-11.46-10.13-.24-20.44,4.21-29.93,1.75-3.79-.98-7.81-3.02-11.44-1.77-1.48.51-2.48,1.49-3.3,2.47-2.11,2.54-3.35,5.28-4.03,8.13-1.28,5.33-.55,11.03.24,16.45Z"/>
    <path class="cls-6" d="M188.06,38.61l.09-.76c-.2,6,4.82,11.84,11.76,15.64,7.57,4.13,17.13,6.19,26.64,7.47,8.22,1.11,16.59,1.71,24.97,1.8,4.89.05,9.9-.09,14.44-1.32,1.99-.54,3.82-1.28,5.46-2.19,2.27-4.4,2.41-9.71-2.56-12.8-4.58-2.86-11.54-2.66-17.75-2.74-1.64-.01-3.49-.13-4.53-1-.99-.83-.87-2.02-.93-3.09-.32-5.16-6.54-9.44-13.6-11.31-7.05-1.87-14.83-1.82-22.41-1.75,1.81-1.85.39-4.55-2.29-5.81-2.69-1.26-6.19-1.38-9.43-1.12-3.53.28-7.19,1.14-10.1,2.53-1.28,5.33-.55,11.03.24,16.45Z"/>
  </g>
  <g class="cls-10">
    <path class="cls-3" d="M1096.61,248.28c10.02,4.56,21.47-.18,32.39-1.12,15.66-1.36,30.78,5.27,45.65,10.54,78.41,27.83,164.01,19.82,246.57,11.47,87.04-8.8,174.09-17.61,261.14-26.41,9.77-.99,19.55-1.97,29.32-2.96,61.57-6.23,125.36-13.18,178.64-45.5,13.91-8.44,27.19-18.84,35.68-32.96,8.71-14.48,11.78-31.82,12.92-48.8,2.71-40.39-4.48-80.67-12.29-120.43-.55-2.8-1.11-5.61-1.66-8.41-1.31-6.64-2.97-13.87-8.2-18-3.66-2.89-8.43-3.71-12.99-4.44-17.3-2.78-74.95,1.22-90.08,27.66-2.51,4.37-4.68,9.13-8.46,12.4-3.57,3.07-8.16,4.49-12.45,6.35-22.2,9.65-41.66,33.28-65.14,27.65,7.38-12.85,1.69-31.04-10.66-38.9-4.19-2.66-8.9-4.21-13.75-4.74-9.44-1.05-19.44,1.7-27.28,7.37-11.86,8.6-9.15,38.58-2.97,39.08-9.04,4.24-18.46,8.79-24.48,16.93-6.02,8.13-7.22,21,.09,27.92-46.56,21.74-191.25,94.84-212.79,106.83-21.54,11.98-46.27,16.22-70.55,19.53-15.2,2.08-30.87,3.85-45.71-.14-11.17-3.01-21.37-9.16-32.59-11.93-11.23-2.78-24.79-1.19-31.63,8.36-4.35,6.08-5.43,14.6-11.17,19.3-3.57,2.92-8.29,3.78-12.8,4.55-8.44,1.43-16.88,2.85-25.32,4.27-7.83,1.32-17.22,2.09-22.3-4.16-2.28-2.79-3.18-6.52-5.23-9.5-8.04-11.7-25.69-5.35-37.91,1.52-12.21,6.87-53.22,22.48-43.97,26.69Z"/>
    <path class="cls-4" d="M1659.5,83.42c4.31,8.09,13.8,11.35,22.42,13.93,14.17,4.24,30.56,8.14,42.99.45-9.24,6.37-16.63,15.54-20.99,26.06-1,2.4-1.85,5.14-.96,7.6,1.28,3.57,5.48,4.85,9.13,5.46,31.08,5.13,64.25-5.53,86.95-27.95,2.71-2.67,5.45-6.62,3.71-10.04-1.16-2.26-3.83-3.15-6.26-3.75-8.97-2.21-18.17-3.37-27.39-3.45,21.77-12.53,43.54-25.06,65.3-37.59,2.59-1.49,5.54-3.61,5.38-6.66-.1-1.81-1.31-3.32-2.19-4.89-3.41-6.12-1.67-14.22,2.56-19.78,4.24-5.55,10.51-9.03,16.78-11.92,14.83-6.84,30.7-11.25,46.86-13.03,6.36-.7,12.9-1.02,18.8-3.59,1.42-.61,2.76-1.34,4.03-2.16-.55-2.8-1.11-5.61-1.66-8.41-1.31-6.64-2.97-13.87-8.2-18-3.66-2.89-8.43-3.71-12.99-4.44-17.3-2.78-74.95,1.22-90.08,27.66-2.51,4.37-4.68,9.13-8.46,12.4-3.57,3.07-8.16,4.49-12.45,6.35-22.2,9.65-41.66,33.28-65.14,27.65,7.38-12.85,1.69-31.04-10.66-38.9-4.19-2.66-8.9-4.21-13.75-4.74-5.36,3.26-10.36,7.74-14.96,12.74-11.73,12.78-10.42,37.94,5.51,44.31-9.77-.44-20.1,1.39-27.67,7.76-7.56,6.37-11.32,18.13-6.62,26.94Z"/>
    <path class="cls-4" d="M1096.61,248.28c10.02,4.56,21.47-.18,32.39-1.12,15.66-1.36,30.78,5.27,45.65,10.54,78.41,27.83,164.01,19.82,246.57,11.47,87.04-8.8,174.09-17.61,261.14-26.41-3.81-4.2-6.88-8.78-7.95-14.43-.58-3-.66-6.43-2.84-8.52-1.58-1.53-3.88-1.91-6.02-2.14-25.07-2.76-51.66,5.08-74.96-4.81,15-8.74,13.56-33.68.75-45.53-12.82-11.85-31.85-13.23-48.94-10.93-11.02,1.49-22.58,4.66-29.99,13.16-7.43,8.49-8.34,23.68.67,30.34,4.19,3.1,9.95,4.11,13.01,8.38,3.32,4.62,1.94,11.5-1.72,15.84-3.66,4.33-9.05,6.66-14.32,8.55-18.72,6.71-38.66,9.76-58.46,8.97,5.7-6.95,13.71-11.86,22.36-13.71-5.63-9.02-18.23-8.94-28.59-7.83-26.79,2.86-53.58,5.72-80.35,8.58-.22,12.77-9.12,24.9-21.02,28.58-11.89,3.7-25.84-1.31-32.89-11.83,4.55-3.07,10.53-1.61,15.96-1.46,5.44.15,12.24-2.81,11.99-8.4-.22-4.79-5.41-7.41-9.87-8.76-20.2-6.06-41.92-6.7-62.41-1.83-5.89,1.41-11.97,3.43-16.1,7.95-2.99,3.29-4.69,7.6-7.53,11.03-10.77,13.03-30.88,7.89-46.93,3.34-27.65-7.82-56.69-10.43-85.25-7.64-4.28.42-23.58,4.4-14.33,8.61Z"/>
    <path class="cls-4" d="M1913.94,95.62c-13.15-1.98-26.22,3.21-38.56,8.3-3.72,1.54-7.78,3.38-9.48,7.12s1.15,9.44,5.05,8.44c-9.16,4.58-18.31,9.16-27.47,13.74-3.21,1.6-6.67,3.48-8.03,6.87s1.16,8.33,4.64,7.56c-15.4,6.65-30.79,13.31-46.19,19.96-5.54,2.39-11.34,4.99-14.98,9.91-.55.75-1.07,1.63-.93,2.56.18,1.18,1.33,1.91,2.4,2.39,15.47,7,32.42-4.41,49-7.77,4.69-.95,10.1-1.05,13.65,2.25,3.55,3.3,2.78,10.89-1.94,11.65,6.98-2.2,13.95-4.4,20.93-6.6,2.35-.74,5.08-1.89,5.59-4.36.8-3.9-4.26-5.91-8.05-6.72-3.79-.81-8.45-4.46-6.2-7.7.58-.84,1.52-1.33,2.45-1.69,7.16-2.75,16.08.61,22.31-3.95,7.95-5.82,4.98-19.25,10.8-27.31,7.63-10.59,27.04-7.78,31.95-19.96,1.82-4.52.62-10.14-2.88-13.45-3.5-3.31-9.05-4.08-13.28-1.83l9.24.6Z"/>
  </g>
  <g>
    <path class="cls-3" d="M561.21,329.71c-5.55,6.64-12.83,7.54-19.66,9.05-7.95,1.74-15.82,4.59-23.48,8.52-8.85,4.52-17.43,10.46-25.56,17.73-3.1,2.78-6.56,6.99-6.25,12.71.05,1.01.22,1.97.47,2.88.69,2.53,1.95,4.75,2.89,7.14,4.59,11.57,1.13,28.14-5.68,36.33-6.81,8.21-15.89,9.64-24.35,8.48-10.52-1.46-22.64-9.5-24.49-26.36-.67-6.06.15-12.3-.22-18.42-.86-13.99-7.44-24.11-14.99-32.04-2.26-14.34-15.19-17.6-24.92-19.9-13.63-3.21-26.65-12.89-37.04-27.54-1.67-2.36-3.38-5.18-3.57-8.75-.36-6.81,4.63-10.68,8.73-12.24,24.03-9.16,49.6-7.45,73.1,4.78,1.95,1.01,3.87,2.1,5.79,3.25,8.2,4.95,16.15,11.2,24.65,14.52,7.79,3.04,15.68,3.54,23.6,2.67,24.43-2.65,49.34-18.19,73.69-11.63,5.24,7.27,2.85,22.2-2.7,28.83Z"/>
    <path class="cls-6" d="M518.07,347.27c-8.85,4.52-17.43,10.46-25.56,17.73-3.1,2.78-6.56,6.99-6.25,12.71.05,1.01.22,1.97.47,2.88-5.01-1.58-10.05-2.63-15.15-2.67-4.46-.04-9.04.65-13.29-1.56-4.24-2.22-8.14-8.45-7.77-15.66.29-5.71,3.18-10.37,6.45-12.51,3.27-2.14,6.89-2.24,10.42-2.29,16.9-.22,33.79.22,50.68,1.36Z"/>
    <path class="cls-6" d="M490.22,312.51c-1.01,5-3.31,9.61-6.15,12.25-5.3,4.9-11.73,4.85-17.84,4.65-5.69-.17-11.39-.35-17.08-.53-4.77-.14-9.94-.53-13.58-5.54-4.6-6.36-4.83-18.58-1.58-26.84.63-1.61,1.37-3.08,2.19-4.43,1.95,1.01,3.87,2.1,5.79,3.25,8.2,4.95,16.15,11.2,24.65,14.52,7.79,3.04,15.68,3.54,23.6,2.67Z"/>
  </g>
  <g>
    <path class="cls-3" d="M1932.51,216.6c-1.38,1.61-3.7,2.7-5.76,3.92-6.76,4.04-10.91,9.78-17.45,13.98-7.03,4.52-16.34,6.97-25.54,8.99-54.22,11.92-114.77,13.25-162.16,34.8-2.58,1.17-6.05,2.4-8.52,1.14-3.61-1.83.23-5.78,4.42-6.89,4.2-1.12,9.66-1.91,10.78-4.88.93-2.47-2.24-4.96-5.85-5.65-3.61-.69-7.44-.07-11.07.55-16.59,2.82-33.17,5.65-49.75,8.47-7.53,1.28-15.33,2.57-22.99,1.67-1.3-.15-2.59-.37-3.84-.66-7.17-1.6-13.35-5.22-16.65-9.85-1.71-2.42-2.65-5.33-1.01-7.78,2.55-3.82,9.73-4.76,15.85-5.2,21.9-1.58,43.79-3.16,65.69-4.74,10.6-.76,21.53-1.6,30.83-5.15,9.3-3.55,16.61-10.57,14.95-17.75-.31-1.39-.96-2.81-.5-4.18.95-2.8,7.18-3.87,9.96-1.7-1,2.47-.46,5.2,1.43,7.41,12.87-12.96,28.65-24.59,46.62-34.34,4.4-2.38,9.28-4.75,14.89-4.96,5.61-.21,11.8,2.73,11.35,6.55-.22,1.87-1.85,3.94-.22,5.44.75.69,2.01,1.03,3.24,1.19,6.15.84,12.25-1.73,16.56-4.84,4.31-3.1,7.65-6.85,12.56-9.51,8.75-4.74,20.71-5.19,31.73-6.49,2.89-.34,5.94-.81,8.06-2.2,1.7-1.11,2.58-2.67,3.35-4.19,3.42-6.72,5.75-13.7,6.9-20.78.55-3.33,1.03-6.98,4.42-9.4,4.03-2.88,10.4-2.9,16.38-2.3l-6.7-.78c5.34.54,10.65,1.13,15.97,1.77,1.43.17,3.01.41,3.9,1.2.91.81.79,1.93.64,2.94-1.6,10.45-3.2,20.9-4.81,31.35-1.91,12.57-3.85,25.13-5.77,37.7-.26,1.76-.56,3.59-1.88,5.13Z"/>
    <path class="cls-6" d="M1932.51,216.6c-1.38,1.61-3.7,2.7-5.76,3.92-6.76,4.04-10.91,9.78-17.45,13.98-7.03,4.52-16.34,6.97-25.54,8.99-54.22,11.92-114.77,13.25-162.16,34.8-2.58,1.17-6.05,2.4-8.52,1.14-3.61-1.83.23-5.78,4.42-6.89,4.2-1.12,9.66-1.91,10.78-4.88.93-2.47-2.24-4.96-5.85-5.65-3.61-.69-7.44-.07-11.07.55-16.59,2.82-33.17,5.65-49.75,8.47-7.53,1.28-15.33,2.57-22.99,1.67-1.3-.15-2.59-.37-3.84-.66-.36-.94-.49-1.94-.36-2.99,26.64-11.32,59-16.27,90.19-13.79,3.6.28,8.01.44,10.06-1.6,1.84-1.83.64-4.4,1.92-6.43.95-1.54,3.14-2.52,5.21-3.41,14.96-6.42,30.45-12.98,47.9-14.94,4.02-.45,8.19-.68,11.79-1.97,3.93-1.41,6.69-3.93,9.56-6.24,12.09-9.75,28.4-17.02,46.34-20.67,2.77-.56,6.38-.84,7.96.8,2.15,2.23-1.83,5.7.75,7.71,2.34,1.81,6.62.08,9-1.7,13.95-10.37,25.55-23.22,44.55-28.72,6.46-1.87,13.73-2.88,20.49-4.32-1.91,12.57-3.85,25.13-5.77,37.7-.26,1.76-.56,3.59-1.88,5.13Z"/>
  </g>
  <g>
    <g>
      <path class="cls-3" d="M1919.67,515.17c-3.16,2.59-8.01,3.74-12.38,5.26-14.36,5.06-24.11,14.67-38.08,20.15-15.03,5.89-33.9,6.62-52.43,6.56-109.22-.42-313.35-15.77-310.31-21.21,2.53-4.52-2.94-10.92-9.78-13.9-6.84-2.98-14.49-3.46-21.75-3.84-33.18-1.78-66.34-3.54-99.5-5.31-15.07-.81-30.65-1.71-45.33-6.93-2.49-.89-4.95-1.9-7.29-3.03-13.52-6.4-53.52-42.5-50.5-52.38,6.25-20.43,37.03-6.23,53.57,5.94,33.53,24.68,86.34,13.26,129.52,19.88,20.89,3.21,42.46,6.42,61.63,3.49,19.16-2.94,35.45-13.71,34.3-28.79-.21-2.92-1.06-6.04.23-8.58,2.66-5.17,15.13-4.52,19.92,1.04-2.66,4.49-2.41,10.19.64,15.45,28.86-20.16,63.01-36.34,100.89-47.81,9.26-2.8,19.48-5.34,30.48-3.26,11,2.09,22.22,10.73,20.25,18.18-.97,3.63-4.75,7.04-2.01,10.78,1.26,1.71,3.62,2.96,5.97,3.84,11.76,4.43,24.4,2.02,33.71-2.27,9.31-4.27,16.91-10.28,27.25-13.39,18.45-5.56,41.91-1.12,63.78,1.21,5.74.61,11.82,1.03,16.35-.79,3.63-1.46,5.8-4.18,7.75-6.87,8.63-11.9,15.18-24.82,19.48-38.44,2.03-6.42,4.03-13.48,11.35-16.82,8.7-3.95,21.13-1.15,32.61,2.72l-12.84-4.56c10.25,3.47,20.45,7.02,30.65,10.68,2.74.98,5.76,2.16,7.26,4.13,1.54,2.02.98,4.21.39,6.17-6.14,20.18-12.29,40.35-18.46,60.52-7.37,24.27-14.78,48.51-22.18,72.78-1.02,3.41-2.14,6.93-5.15,9.41Z"/>
      <path class="cls-6" d="M1919.67,515.17c-3.16,2.59-8.01,3.74-12.38,5.26-14.36,5.06-24.11,14.67-38.08,20.15-15.03,5.89-33.9,6.62-52.43,6.56-109.22-.42-305.48-13.64-311.18-19.34-3.82-3.82-2.06-12.79-8.9-15.78-6.84-2.98-14.49-3.46-21.75-3.84-33.18-1.78-66.34-3.54-99.5-5.31-15.07-.81-30.65-1.71-45.33-6.93-2.49-.89-4.95-1.9-7.29-3.03-.43-2.05-.39-4.09.17-6.14,55.24-10.72,119.8-6.15,179.94,12.76,6.95,2.17,15.5,4.47,20.09,1.31,4.12-2.83,2.53-8.5,5.61-11.99,2.31-2.65,6.85-3.64,11.16-4.49,31.04-6.15,63.16-12.34,97.76-8.45,7.97.89,16.18,2.31,23.57,1.33,8.08-1.06,14.18-4.86,20.45-8.21,26.41-14.08,60.34-21.33,96.39-20.6,5.56.12,12.69,1.17,15.29,5.15,3.54,5.42-5.22,10.58-.76,15.74,4.03,4.66,12.89,3.11,18.05.62,30.22-14.49,56.57-34.99,95.23-37.49,13.14-.85,27.61.38,41.22.52-7.37,24.27-14.78,48.51-22.18,72.78-1.02,3.41-2.14,6.93-5.15,9.41Z"/>
    </g>
    <g>
      <path class="cls-3" d="M1885.66,342.88l-.15-1.3c.33,10.23-8.21,20.18-20.04,26.65-12.9,7.04-29.2,10.54-45.4,12.73-14.01,1.89-28.27,2.92-42.54,3.07-8.33.09-16.87-.15-24.61-2.25-3.39-.92-6.51-2.19-9.31-3.73-10.42-5.69-16.55-15.08-17.03-24.34-.28-5.55,1.3-11.34,6.15-15.79,4.85-4.46,13.44-7.28,21.34-5.95,5.23.88,11.92,3.08,15.01.07.8-.77,1.05-1.76,1.2-2.7.68-4.31-.65-8.7.07-13.01,1.78-10.7,16.97-19.14,32.77-19.52,17.27-.41,34.83,7.17,51,2.99,6.46-1.66,13.31-5.15,19.49-3.02,2.53.86,4.22,2.54,5.62,4.21,3.59,4.33,5.72,9,6.86,13.85,2.18,9.08.93,18.79-.42,28.04Z"/>
      <path class="cls-6" d="M1885.66,342.88l-.15-1.3c.33,10.23-8.21,20.18-20.04,26.65-12.9,7.04-29.2,10.54-45.4,12.73-14.01,1.89-28.27,2.92-42.54,3.07-8.33.09-16.87-.15-24.61-2.25-3.39-.92-6.51-2.19-9.31-3.73-3.87-7.5-4.1-16.55,4.35-21.81,7.81-4.87,19.66-4.54,30.25-4.67,2.79-.02,5.95-.23,7.73-1.7,1.7-1.42,1.48-3.44,1.58-5.27.55-8.79,11.15-16.08,23.18-19.27,12.02-3.18,25.28-3.1,38.19-2.98-3.09-3.15-.66-7.75,3.91-9.9,4.59-2.14,10.55-2.34,16.07-1.91,6.02.48,12.25,1.94,17.22,4.3,2.18,9.08.93,18.79-.42,28.04Z"/>
    </g>
  </g>
  <g>
    <g>
      <path class="cls-3" d="M-15.4,483.02c3.13,3.64,8.4,6.13,13.07,8.89,15.33,9.17,24.73,22.17,39.55,31.7,15.95,10.25,37.05,15.79,57.91,20.39,122.93,27.02,340.03,68.85,352.54,54.79,3.98-4.48,5.09-11.25,13.27-12.81,8.18-1.56,16.87-.15,25.1,1.26,37.62,6.39,75.21,12.81,112.8,19.2,17.08,2.9,34.76,5.83,52.12,3.8,2.95-.35,5.87-.84,8.7-1.49,16.26-3.62-95.18-58.93-144.83-62.52-24.03-1.73-48.82-3.63-69.9-11.68-21.08-8.04-54.28-41.78-58.57-36.77-29.18-29.39-64.96-55.75-105.7-77.87-9.97-5.41-21.04-10.77-33.76-11.25-12.72-.48-26.75,6.19-25.74,14.86.5,4.23,4.2,8.92.5,12.34-1.69,1.56-4.55,2.34-7.34,2.71-13.95,1.9-27.77-3.93-37.56-10.97-9.78-7.03-17.35-15.54-28.48-21.56-19.84-10.75-46.97-11.77-71.94-14.72-6.56-.78-13.46-1.85-18.27-4.99-3.85-2.52-5.84-6.05-7.59-9.49-7.76-15.24-13.03-31.07-15.65-47.11-1.24-7.56-2.33-15.82-10.02-21.32-9.14-6.52-23.58-6.58-37.13-5.21l15.19-1.78c-12.1,1.23-24.15,2.56-36.22,4.01-3.25.39-6.83.92-8.84,2.71-2.06,1.83-1.79,4.38-1.44,6.67,3.62,23.7,7.25,47.39,10.9,71.09,4.34,28.5,8.72,56.98,13.09,85.48.59,4,1.28,8.14,4.26,11.62Z"/>
      <path class="cls-6" d="M-15.4,483.02c3.13,3.64,8.4,6.13,13.07,8.89,15.33,9.17,24.73,22.17,39.55,31.7,15.95,10.25,37.05,15.79,57.91,20.39,122.93,27.02,335.46,68.85,352.54,54.79,4.62-3.81,5.09-11.25,13.27-12.81,8.18-1.56,16.87-.15,25.1,1.26,37.62,6.39,75.21,12.81,112.8,19.2,17.08,2.9,34.76,5.83,52.12,3.8,2.95-.35,5.87-.84,8.7-1.49.82-2.14,1.1-4.4.81-6.78-60.4-25.67-133.76-36.89-204.5-31.26-8.17.64-18.16,1-22.82-3.62-4.17-4.14-1.46-9.97-4.36-14.58-2.16-3.49-7.11-5.71-11.82-7.74-33.91-14.56-69.04-29.44-108.6-33.87-9.11-1.03-18.58-1.53-26.74-4.47-8.91-3.19-15.16-8.9-21.67-14.16-27.42-22.1-64.4-38.59-105.08-46.86-6.28-1.27-14.46-1.91-18.04,1.81-4.87,5.06,4.15,12.93-1.71,17.47-5.29,4.11-15.01.17-20.41-3.86-31.63-23.51-57.94-52.65-101.02-65.11-14.64-4.24-31.12-6.53-46.46-9.8,4.34,28.5,8.72,56.98,13.09,85.48.59,4,1.28,8.14,4.26,11.62Z"/>
    </g>
    <g>
      <path class="cls-3" d="M49.96,348.87c.98,1.21,2.13,2.35,3.4,3.42,8.06,6.73,19.41,10.54,30.2,14.07,6.27,2.05,12.52,4.1,18.77,6.14,19.56,3.14,40.81,5.97,55.59-.78,3.96-1.81,7.47-4.31,12.4-4.73.97-.08,1.94-.09,2.94,0,3.81.24,7.8,1.42,11.62,2.6,15.08,4.65,30.16,9.29,45.22,13.95,2.7-3.24-3.3-7.94-8.5-10.58-19.44-9.91-40.17-18.14-61.45-24.42-8.23-2.43-16.98-4.61-24.77-3.65-5.91.71-10.82,3.21-16.89,3.56-11.74.67-23.63-6.44-34.49-12.23-10.88-5.78-25.72-10.73-34.19-5.73-6.45,3.82-5.27,11.92.12,18.38Z"/>
      <path class="cls-6" d="M49.96,348.87c.98,1.21,2.13,2.35,3.4,3.42,8.06,6.73,19.41,10.54,30.2,14.07,6.27,2.05,12.52,4.1,18.77,6.14,19.56,3.14,40.81,5.97,55.59-.78,3.96-1.81,7.47-4.31,12.4-4.73.97-.08,1.94-.09,2.94,0-3.28-1.08-6.56-2.09-9.87-3.07-8.23-2.43-16.98-4.61-24.77-3.65-5.91.71-10.82,3.21-16.89,3.56-11.74.67-23.63-6.44-34.49-12.23-10.88-5.78-25.72-10.73-34.19-5.73-1.39.82-2.42,1.84-3.12,3Z"/>
    </g>
  </g>
</svg>